<svg width="20" height="20" viewBox="0 0 20 20" fill="none" xmlns="http://www.w3.org/2000/svg">
<path d="M9.03868 14.0781C8.89948 14.2749 8.76768 14.3719 8.64168 14.3719C8.55768 14.3719 8.50988 14.3227 8.49468 14.2251C8.48868 14.2049 8.48868 14.1283 8.48868 13.9811V11.4291H7.86108V14.1699C7.86108 14.4149 7.88188 14.5801 7.91648 14.6851C7.97908 14.8607 8.11868 14.9429 8.32108 14.9429C8.55188 14.9429 8.78908 14.8035 9.03848 14.5171V14.8953H9.66708V11.4293H9.03868V14.0781V14.0781ZM5.58008 10.8983H6.31888V14.8953H7.01728V10.8983H7.76968V10.2435H5.58008V10.8983ZM9.85688 7.86785C10.0615 7.86785 10.1595 7.70585 10.1595 7.38165V5.90805C10.1595 5.58425 10.0615 5.42285 9.85688 5.42285C9.65208 5.42285 9.55388 5.58425 9.55388 5.90805V7.38165C9.55408 7.70565 9.65208 7.86785 9.85688 7.86785ZM11.4875 11.3869C11.2567 11.3869 11.0415 11.5133 10.8389 11.7629V10.2435H10.2107V14.8953H10.8389V14.5589C11.0485 14.8187 11.2643 14.9429 11.4875 14.9429C11.7377 14.9429 11.9057 14.8113 11.9897 14.5535C12.0315 14.4065 12.0529 14.1757 12.0529 13.8551V12.4749C12.0529 12.1469 12.0315 11.9177 11.9897 11.7783C11.9055 11.5185 11.7377 11.3869 11.4875 11.3869ZM11.4249 13.9043C11.4249 14.2173 11.3327 14.3717 11.1517 14.3717C11.0485 14.3717 10.9437 14.3225 10.8387 14.2175V12.1047C10.9437 12.0013 11.0483 11.9521 11.1517 11.9521C11.3329 11.9521 11.4249 12.1125 11.4249 12.4251V13.9043ZM13.4877 11.3869C13.1673 11.3869 12.9169 11.5051 12.7357 11.7425C12.6021 11.9175 12.5415 12.1883 12.5415 12.5585V13.7729C12.5415 14.1409 12.6099 14.4147 12.7433 14.5877C12.9247 14.8243 13.1747 14.9427 13.5035 14.9427C13.8315 14.9427 14.0889 14.8185 14.2629 14.5673C14.3396 14.4544 14.3897 14.3257 14.4095 14.1907C14.4151 14.1277 14.4229 13.9881 14.4229 13.7861V13.6941H13.7819C13.7819 13.9461 13.7741 14.0855 13.7683 14.1197C13.7325 14.2875 13.6421 14.3715 13.4877 14.3715C13.2721 14.3715 13.1673 14.2115 13.1673 13.8907V13.2763H14.4231V12.5583C14.4231 12.1879 14.3601 11.9173 14.2287 11.7423C14.0529 11.5049 13.8029 11.3869 13.4877 11.3869V11.3869ZM13.7951 12.7537H13.1673V12.4331C13.1673 12.1127 13.2721 11.9523 13.4821 11.9523C13.6899 11.9523 13.7951 12.1127 13.7951 12.4331V12.7537V12.7537Z" fill="black"/>
<path d="M15.8008 2.7998H4.20078C3.43078 2.7998 2.80078 3.4298 2.80078 4.1998V15.7998C2.80078 16.5698 3.43078 17.1998 4.20078 17.1998H15.8008C16.5708 17.1998 17.2008 16.5698 17.2008 15.7998V4.1998C17.2008 3.4298 16.5708 2.7998 15.8008 2.7998ZM11.3168 4.8938H11.9494V7.4722C11.9494 7.6214 11.9494 7.6988 11.9572 7.7192C11.9712 7.8176 12.0208 7.8678 12.106 7.8678C12.2328 7.8678 12.3662 7.7694 12.5068 7.5706V4.8938H13.1416V8.3958H12.5068V8.0138C12.2542 8.3036 12.0132 8.4444 11.7818 8.4444C11.5774 8.4444 11.4364 8.3614 11.373 8.1838C11.338 8.078 11.3168 7.91021 11.3168 7.66301V4.8938V4.8938ZM8.91938 6.0354C8.91938 5.6612 8.98318 5.3874 9.11818 5.2104C9.29378 4.9712 9.54098 4.8514 9.85698 4.8514C10.175 4.8514 10.4218 4.9712 10.5976 5.2104C10.7304 5.3874 10.7946 5.6612 10.7946 6.0354V7.2624C10.7946 7.6344 10.7306 7.9104 10.5976 8.0862C10.4218 8.3248 10.1752 8.4446 9.85698 8.4446C9.54078 8.4446 9.29358 8.3248 9.11818 8.0862C8.98318 7.9104 8.91938 7.6344 8.91938 7.2624V6.0354ZM7.22218 3.6962L7.72198 5.5416L8.20178 3.6962H8.91338L8.06698 6.4926V8.3958H7.36298V6.4926C7.29938 6.155 7.15858 5.661 6.93298 5.0056C6.78458 4.5696 6.62998 4.1316 6.48178 3.6962H7.22218ZM15.0154 15.1034C14.8886 15.656 14.4362 16.0636 13.8922 16.1242C12.6034 16.2682 11.2992 16.269 10.0008 16.2682C8.70218 16.269 7.39798 16.2682 6.10938 16.1242C5.56518 16.0634 5.11358 15.6558 4.98658 15.1034C4.80558 14.3162 4.80558 13.457 4.80558 12.647C4.80558 11.8362 4.80758 10.9776 4.98878 10.1902C5.11558 9.6378 5.56738 9.2304 6.11158 9.1696C7.40018 9.0252 8.70438 9.0248 10.003 9.0252C11.3014 9.0248 12.6056 9.0252 13.8944 9.1696C14.4382 9.2304 14.8904 9.6378 15.0174 10.1902C15.1984 10.9778 15.1974 11.8362 15.1974 12.647C15.1976 13.457 15.1966 14.3162 15.0154 15.1034V15.1034Z" fill="black"/>
</svg>
